<?xml version="1.0" encoding="UTF-8"?>
<svg width="752pt" height="752pt" version="1.1" viewBox="0 0 752 752" xmlns="http://www.w3.org/2000/svg">
 <path d="m562.68 345.56h-3.1836c-12.906-78.438-74.625-140.15-153.05-153.05v-3.1836c0-12.496-10.164-22.66-22.66-22.66h-15.559c-12.496 0-22.66 10.164-22.66 22.66v3.1836c-78.434 12.906-140.15 74.617-153.05 153.05h-3.1836c-12.496 0-22.66 10.164-22.66 22.66v15.559c0 12.496 10.164 22.66 22.66 22.66h3.1836c12.906 78.438 74.617 140.16 153.05 153.05v3.1836c0 12.496 10.164 22.66 22.66 22.66h15.559c12.496 0 22.66-10.164 22.66-22.66v-3.1836c78.371-12.895 140.14-74.637 153.05-153.05h3.1875c12.496 0 22.66-10.164 22.66-22.66v-15.559c0.007813-12.492-10.156-22.66-22.656-22.66zm-17.582 0h-46.691c-11.148-50.672-41.309-80.836-91.961-91.961v-46.695c70.562 12.598 126.04 68.078 138.65 138.66zm-61.137 60.57c-10.152 42.688-35.129 67.672-77.828 77.828-1.5195-11.031-10.91-19.582-22.352-19.582h-15.559c-11.441 0-20.824 8.5469-22.348 19.578-42.629-10.133-67.586-35.121-77.809-77.828 11.016-1.5352 19.551-10.922 19.551-22.348v-15.559c0-11.426-8.5352-20.812-19.543-22.348 10.234-42.703 35.188-67.688 77.805-77.824 1.5195 11.023 10.91 19.574 22.348 19.574h15.559c11.441 0 20.828-8.5547 22.348-19.578 42.684 10.145 67.656 35.125 77.82 77.828-11.02 1.5195-19.57 10.91-19.57 22.348v15.559c-0.003906 11.445 8.5508 20.832 19.578 22.352zm-124.19-216.8c0-4.6602 3.793-8.4531 8.4531-8.4531h15.559c4.6602 0 8.4531 3.793 8.4531 8.4531v69.758c-0.007813 0.21875-0.015625 0.4375 0 0.64844v5.2266c0 4.6602-3.793 8.4531-8.4531 8.4531h-15.559c-4.6602 0-8.4531-3.793-8.4531-8.4531zm-14.207 17.586v46.695c-50.578 11.121-80.73 41.277-91.961 91.957h-46.691c12.609-70.574 68.09-126.05 138.65-138.65zm-164.69 176.87v-15.559c0-4.6602 3.793-8.4531 8.4531-8.4531h75.633c4.6602 0 8.4531 3.793 8.4531 8.4531v15.559c0 4.6602-3.793 8.4531-8.4531 8.4531h-65.805c-0.0625-0.003906-0.11719 0.003906-0.17969 0h-9.6484c-4.6602 0-8.4531-3.793-8.4531-8.4531zm26.039 22.66h46.688c11.215 50.684 41.371 80.844 91.965 91.961v46.695c-70.574-12.598-126.05-68.078-138.65-138.66zm185.32 156.23c0 4.6602-3.793 8.4531-8.4531 8.4531h-15.559c-4.6602 0-8.4531-3.793-8.4531-8.4531l0.003907-75.637c0-4.6602 3.793-8.4531 8.4531-8.4531h15.559c4.6602 0 8.4531 3.793 8.4531 8.4531zm14.207-17.582v-46.688c50.668-11.145 80.832-41.305 91.965-91.965h46.691c-12.602 70.555-68.137 126.06-138.66 138.65zm164.69-161.31c0 4.6602-3.793 8.4531-8.4531 8.4531h-70.07-0.14844-5.4258c-4.6602 0-8.4531-3.793-8.4531-8.4531v-15.559c0-4.6602 3.793-8.4531 8.4531-8.4531h75.641c4.6602 0 8.4531 3.793 8.4531 8.4531z"/>
</svg>
