<?xml version="1.0" encoding="UTF-8"?>
<svg width="752pt" height="752pt" version="1.1" viewBox="0 0 752 752" xmlns="http://www.w3.org/2000/svg">
 <g>
  <path d="m376 213.99c-42.969 0-84.176 17.066-114.56 47.453-30.387 30.383-47.453 71.59-47.453 114.56s17.066 84.18 47.453 114.56c30.383 30.383 71.59 47.453 114.56 47.453s84.18-17.07 114.56-47.453 47.453-71.594 47.453-114.56-17.07-84.176-47.453-114.56c-30.383-30.387-71.594-47.453-114.56-47.453zm0 299.11v-0.003906c-36.355 0-71.227-14.441-96.934-40.152-25.711-25.707-40.152-60.578-40.152-96.938 0-36.355 14.441-71.227 40.152-96.934 25.707-25.711 60.578-40.152 96.934-40.152 36.359 0 71.23 14.441 96.938 40.152 25.711 25.707 40.152 60.578 40.152 96.934 0 36.359-14.441 71.23-40.152 96.938-25.707 25.711-60.578 40.152-96.938 40.152z"/>
  <path d="m376 164.14c-56.188 0-110.08 22.32-149.81 62.055-39.734 39.73-62.055 93.621-62.055 149.81-0.039063 30.48 6.5977 60.598 19.441 88.238l-19.441 109.05c-0.72656 3.9844 0.52734 8.0742 3.3633 10.969 2.4141 2.3945 5.6992 3.6992 9.0977 3.6133 0.70312 0.12891 1.418 0.12891 2.1211 0l109.05-19.191c27.66 12.758 57.777 19.309 88.234 19.191 56.191 0 110.08-22.32 149.81-62.055 39.734-39.73 62.055-93.621 62.055-149.81 0-56.188-22.32-110.08-62.055-149.81-39.73-39.734-93.621-62.055-149.81-62.055zm0 398.8c-28.074 0.027344-55.781-6.3672-81.004-18.695-1.7109-0.82812-3.5859-1.2539-5.4844-1.2461h-2.1172l-95.465 17.074 16.824-95.465c0.47266-2.5742 0.125-5.2344-1-7.6016-12.324-25.223-18.719-52.934-18.691-81.008 0-49.578 19.695-97.129 54.754-132.18 35.055-35.059 82.605-54.754 132.18-54.754 49.582 0 97.129 19.695 132.19 54.754 35.059 35.055 54.754 82.605 54.754 132.18 0 49.582-19.695 97.129-54.754 132.19s-82.605 54.754-132.19 54.754z"/>
  <path d="m394.7 307.46c0 10.324-8.3711 18.695-18.695 18.695s-18.691-8.3711-18.691-18.695 8.3672-18.695 18.691-18.695 18.695 8.3711 18.695 18.695"/>
  <path d="m400.93 438.32h-12.461v-87.242c0.019531-3.3125-1.2812-6.4961-3.6133-8.8477-2.3555-2.332-5.5391-3.6328-8.8516-3.6133h-24.926c-6.8828 0-12.461 5.5781-12.461 12.461 0 6.8867 5.5781 12.465 12.461 12.465h12.461v74.777h-12.461c-6.8828 0-12.461 5.5781-12.461 12.461 0 6.8828 5.5781 12.461 12.461 12.461h49.852c6.8828 0 12.465-5.5781 12.465-12.461 0-6.8828-5.582-12.461-12.465-12.461z"/>
 </g>
</svg>
