<?xml version="1.0" encoding="utf-8"?>
<!-- Generator: Adobe Illustrator 25.2.3, SVG Export Plug-In . SVG Version: 6.00 Build 0)  -->
<svg version="1.1" id="Layer_1" xmlns="http://www.w3.org/2000/svg" xmlns:xlink="http://www.w3.org/1999/xlink" x="0px" y="0px"
	 viewBox="0 0 1600 655" style="enable-background:new 0 0 1600 655;" xml:space="preserve">
<style type="text/css">
	.st0{fill:url(#SVGID_1_);}
	.st1{fill:url(#SVGID_2_);}
	.st2{fill:url(#SVGID_3_);}
	.st3{display:none;}
	.st4{display:inline;}
</style>
<linearGradient id="SVGID_1_" gradientUnits="userSpaceOnUse" x1="0" y1="327.5" x2="1600" y2="327.5">
	<stop  offset="0" style="stop-color:#347DC4"/>
	<stop  offset="0.2441" style="stop-color:#3881C9"/>
	<stop  offset="0.5246" style="stop-color:#438ED7"/>
	<stop  offset="0.822" style="stop-color:#55A2EE"/>
	<stop  offset="1" style="stop-color:#63B2FF"/>
</linearGradient>
<path class="st0" d="M1600,0H0v655l694-284.1l730.5-299l-5.2,0c-0.2,0-0.4-0.1-0.6-0.2c-0.2-0.2-0.2-0.4-0.2-0.6l0-8.5l-2.1,3.3
	c-0.1,0.2-0.2,0.3-0.4,0.5c-0.2,0.2-0.4,0.3-0.7,0.3l-2.2,0c-0.3,0-0.5-0.1-0.7-0.3c-0.2-0.2-0.3-0.3-0.4-0.5l-2.1-3.4l0,8.5
	c0,0.2-0.1,0.4-0.2,0.6c-0.2,0.2-0.4,0.2-0.6,0.2l-5.6,0c-0.2,0-0.4-0.1-0.6-0.2c-0.2-0.2-0.2-0.4-0.2-0.6l0.1-20.1
	c0-0.2,0.1-0.4,0.2-0.6c0.2-0.2,0.4-0.2,0.6-0.2l4.9,0c0.4,0,0.7,0.1,0.9,0.3c0.2,0.2,0.3,0.4,0.4,0.5l4.5,7.5l4.5-7.4
	c0.1-0.1,0.2-0.3,0.4-0.5c0.2-0.2,0.5-0.3,0.9-0.3l4.9,0c0.2,0,0.4,0.1,0.6,0.2c0.2,0.2,0.2,0.4,0.2,0.6l-0.1,20.1
	c0,0.1,0,0.2-0.1,0.4l3.4-1.4l0-4.4c0-0.2,0.1-0.4,0.2-0.6c0.2-0.2,0.4-0.2,0.6-0.2l5.4,0c0.2,0,0.4,0.1,0.6,0.2
	c0.2,0.2,0.2,0.4,0.2,0.6l0,1.4L1600,0z M1436,63.3c-0.2,0.2-0.4,0.2-0.6,0.2l-5.4,0c-0.2,0-0.4-0.1-0.6-0.2
	c-0.2-0.2-0.2-0.4-0.2-0.6l0-11.7c0-0.2,0.1-0.4,0.2-0.6c0.2-0.2,0.4-0.2,0.6-0.2l5.4,0c0.2,0,0.4,0.1,0.6,0.2
	c0.2,0.2,0.2,0.4,0.2,0.6l0,11.7C1436.2,62.9,1436.2,63.1,1436,63.3z"/>
<g>
	<linearGradient id="SVGID_2_" gradientUnits="userSpaceOnUse" x1="1424.5601" y1="71.575" x2="1425.76" y2="71.575">
		<stop  offset="0" style="stop-color:#347DC4"/>
		<stop  offset="0.2441" style="stop-color:#3881C9"/>
		<stop  offset="0.5246" style="stop-color:#438ED7"/>
		<stop  offset="0.822" style="stop-color:#55A2EE"/>
		<stop  offset="1" style="stop-color:#63B2FF"/>
	</linearGradient>
	<path class="st1" d="M1424.6,71.8h0.4c0.2,0,0.4-0.1,0.6-0.2c0.1-0.1,0.1-0.2,0.2-0.2L1424.6,71.8z"/>
	<linearGradient id="SVGID_3_" gradientUnits="userSpaceOnUse" x1="1429.14" y1="69.445" x2="1436.23" y2="69.445">
		<stop  offset="0" style="stop-color:#347DC4"/>
		<stop  offset="0.2441" style="stop-color:#3881C9"/>
		<stop  offset="0.5246" style="stop-color:#438ED7"/>
		<stop  offset="0.822" style="stop-color:#55A2EE"/>
		<stop  offset="1" style="stop-color:#63B2FF"/>
	</linearGradient>
	<path class="st2" d="M1436.2,67l0,4c0,0.2-0.1,0.4-0.2,0.6c-0.2,0.2-0.4,0.2-0.6,0.2l-5.4,0c-0.2,0-0.4-0.1-0.6-0.2
		c-0.2-0.2-0.2-0.4-0.2-0.6v-1L1436.2,67z"/>
</g>
<g>
	<g class="st3">
		<path class="st4" d="M1263.6,169c-0.5,0.2-1,0.1-1.5-0.1c-0.5-0.2-0.8-0.6-1-1.1l-14.9-44.1c-0.2-0.5-0.1-1,0.1-1.5
			c0.2-0.5,0.6-0.8,1.1-1l10.8-3.6c0.9-0.3,1.7-0.3,2.3,0.1c0.6,0.3,1,0.6,1.3,0.8l15.4,13l4.3-19.7c0.1-0.3,0.2-0.7,0.5-1.4
			c0.3-0.7,0.9-1.1,1.8-1.4l10.8-3.6c0.5-0.2,1-0.1,1.5,0.1c0.5,0.2,0.8,0.6,1,1.1l14.9,44.1c0.2,0.5,0.1,1-0.1,1.5
			c-0.2,0.5-0.6,0.8-1.1,1l-12.3,4.2c-0.5,0.2-1,0.1-1.5-0.1c-0.5-0.2-0.8-0.6-1-1.1l-6.3-18.7l-2,8.9c-0.1,0.4-0.3,0.9-0.5,1.4
			c-0.3,0.5-0.7,0.9-1.4,1.1l-4.8,1.6c-0.7,0.2-1.3,0.2-1.8,0c-0.5-0.3-1-0.5-1.3-0.8l-7-5.8l6.3,18.7c0.2,0.5,0.1,1-0.1,1.5
			c-0.2,0.5-0.6,0.8-1.1,1L1263.6,169z"/>
		<path class="st4" d="M1331,147c-2.6,0.9-5.1,1.2-7.4,0.9c-2.3-0.3-4.3-1-6-2.3c-1.7-1.3-2.8-2.9-3.5-5c-1.1-3.3-0.7-6.4,1.4-9.2
			c2.1-2.8,5.2-5.4,9.5-7.7l6.8-3.6l0-0.1c-0.4-1.2-0.8-2-1.2-2.5s-1.1-0.6-2-0.2c-0.6,0.2-1.1,0.5-1.4,0.9
			c-0.3,0.4-0.6,0.9-0.9,1.5c-0.3,0.7-0.9,1.1-1.7,1.4l-11.6,3.9c-0.5,0.2-0.9,0.1-1.3,0c-0.4-0.2-0.6-0.5-0.7-1
			c-0.2-0.9-0.2-2,0.1-3.4c0.3-1.4,1-2.9,2-4.4s2.6-3.1,4.6-4.6s4.6-2.8,7.8-3.9c3.1-1,5.9-1.6,8.4-1.7c2.5-0.1,4.7,0.2,6.7,0.9
			s3.6,1.9,4.9,3.5c1.4,1.6,2.5,3.5,3.2,5.9l6.6,19.6c0.2,0.5,0.1,1-0.1,1.5c-0.2,0.5-0.6,0.8-1.1,1l-11.9,4c-0.5,0.2-1,0.1-1.5-0.1
			c-0.5-0.2-0.8-0.6-1-1.1l-0.6-1.9c-0.3,1.1-0.9,2.2-1.6,3.2c-0.8,1-1.7,1.9-2.8,2.7C1333.7,145.9,1332.4,146.5,1331,147z
			 M1332.3,135.3c0.9-0.3,1.6-0.8,2.2-1.3c0.5-0.6,0.9-1.3,0.9-2.3c0.1-0.9-0.1-2-0.5-3.2l0-0.1l-3.7,2.2c-1.1,0.7-1.8,1.3-2,1.9
			c-0.3,0.6-0.3,1.1-0.1,1.6c0.1,0.3,0.3,0.6,0.6,0.8c0.3,0.2,0.7,0.4,1.1,0.4C1331.3,135.5,1331.8,135.5,1332.3,135.3z"/>
		<path class="st4" d="M1360.7,136.1c-0.5,0.2-0.9,0.1-1.3-0.1c-0.4-0.2-0.7-0.5-0.9-1c0-0.1-0.1-0.2-0.1-0.4c0-0.2,0-0.4,0-0.5
			l5.7-19.5l-14.8-11.3c-0.1-0.1-0.2-0.2-0.3-0.3c-0.1-0.1-0.2-0.3-0.3-0.5c-0.2-0.5-0.1-0.9,0.1-1.3c0.2-0.4,0.5-0.7,1-0.9
			l12.5-4.2c0.7-0.2,1.2-0.2,1.7,0c0.4,0.2,0.7,0.4,1,0.6l6,4.7l1.9-7.4c0.1-0.3,0.2-0.6,0.4-1c0.2-0.4,0.7-0.8,1.3-1l11.9-4
			c0.5-0.2,0.9-0.1,1.3,0.1c0.4,0.2,0.7,0.5,0.8,0.9c0.1,0.2,0.1,0.4,0.1,0.6c0,0.2,0,0.3-0.1,0.4l-5.1,18l16.6,12
			c0.1,0.1,0.3,0.2,0.4,0.4c0.1,0.1,0.2,0.3,0.2,0.4c0.2,0.5,0.1,0.9-0.1,1.3c-0.2,0.4-0.5,0.7-1,0.9l-13.1,4.4
			c-0.6,0.2-1.1,0.2-1.5,0c-0.4-0.2-0.7-0.3-1-0.5l-6.7-5.1l-2.5,8.2c-0.1,0.2-0.2,0.5-0.4,0.9c-0.2,0.4-0.6,0.7-1.2,0.9
			L1360.7,136.1z"/>
		<path class="st4" d="M1420.1,116.1c-0.5,0.2-1,0.1-1.5-0.1c-0.5-0.2-0.8-0.6-1-1.1l-14.9-44.1c-0.2-0.5-0.1-1,0.1-1.5
			c0.2-0.5,0.6-0.8,1.1-1l20.7-7c4.1-1.4,7.9-2,11.4-1.9c3.5,0.2,6.5,1.2,9,3.1c2.5,1.9,4.5,4.7,5.7,8.5s1.5,7.1,0.6,10.1
			c-0.9,3-2.7,5.5-5.4,7.7c-2.7,2.2-6.1,3.9-10.2,5.3l-4.8,1.6l4.4,13c0.2,0.5,0.1,1-0.1,1.5c-0.2,0.5-0.6,0.8-1.1,1L1420.1,116.1z
			 M1426.3,83.3l4.8-1.6c0.7-0.2,1.3-0.8,1.8-1.6s0.5-1.9,0.1-3.2c-0.3-0.9-0.8-1.7-1.5-2.4c-0.7-0.7-1.7-0.9-2.9-0.5l-4.8,1.6
			L1426.3,83.3z"/>
		<path class="st4" d="M1477.2,97.5c-2.6,0.9-5,1.2-7.4,0.9c-2.3-0.3-4.3-1-6-2.3s-2.8-2.9-3.5-5c-1.1-3.3-0.7-6.4,1.4-9.2
			c2.1-2.8,5.2-5.4,9.5-7.7l6.8-3.6l0-0.1c-0.4-1.2-0.8-2-1.2-2.5s-1.1-0.6-2-0.2c-0.6,0.2-1.1,0.5-1.4,0.9
			c-0.3,0.4-0.6,0.9-0.9,1.5c-0.3,0.7-0.9,1.1-1.7,1.4l-11.6,3.9c-0.5,0.2-0.9,0.1-1.3,0c-0.4-0.2-0.6-0.5-0.7-1
			c-0.2-0.9-0.2-2,0.1-3.4c0.3-1.4,1-2.9,2-4.4s2.6-3.1,4.6-4.6s4.6-2.8,7.8-3.9c3.1-1,5.9-1.6,8.4-1.7c2.5-0.1,4.7,0.2,6.7,0.9
			s3.6,1.9,4.9,3.5c1.4,1.6,2.5,3.5,3.2,5.9l6.6,19.6c0.2,0.5,0.1,1-0.1,1.5c-0.2,0.5-0.6,0.8-1.1,1l-11.9,4c-0.5,0.2-1,0.1-1.5-0.1
			c-0.5-0.2-0.8-0.6-1-1.1l-0.6-1.9c-0.3,1.1-0.9,2.2-1.6,3.2c-0.8,1-1.7,1.9-2.8,2.7C1479.8,96.4,1478.6,97,1477.2,97.5z
			 M1478.4,85.8c0.9-0.3,1.6-0.8,2.2-1.3c0.5-0.6,0.9-1.3,0.9-2.3c0.1-0.9-0.1-2-0.5-3.2l0-0.1l-3.7,2.2c-1.1,0.7-1.8,1.3-2,1.9
			c-0.3,0.6-0.3,1.1-0.1,1.6c0.1,0.3,0.3,0.6,0.6,0.8c0.3,0.2,0.7,0.4,1.1,0.4C1477.4,86.1,1477.9,86,1478.4,85.8z"/>
		<path class="st4" d="M1526.3,80.8c-3.5,1.2-6.8,1.6-10,1.4c-3.2-0.2-6.1-1.2-8.6-3c-2.5-1.7-4.4-4.3-5.8-7.6
			c-0.3-0.7-0.6-1.6-1-2.7c-0.4-1.1-0.7-2-0.9-2.8c-1-3.4-1-6.6-0.1-9.5c0.9-2.9,2.6-5.5,5-7.6c2.4-2.2,5.4-3.8,8.8-5
			c3.6-1.2,6.8-1.7,9.7-1.6s5.3,0.7,7.4,1.7s3.7,2,5,3.2c1.2,1.2,2,2.2,2.4,3.1c0.2,0.5,0.2,1-0.1,1.5c-0.3,0.5-0.6,0.8-1.1,1
			l-13.3,4.5c-0.5,0.2-0.9,0.2-1.3,0c-0.4-0.1-0.8-0.4-1.1-0.7c-0.5-0.5-1-0.9-1.5-1.2c-0.5-0.2-1-0.3-1.7,0c-1,0.4-1.6,1-1.7,1.9
			c-0.1,0.9,0.1,2,0.5,3.4c0.6,2,1.2,3.6,1.6,4.8c0.6,1.4,1.2,2.4,1.7,3c0.6,0.6,1.4,0.7,2.4,0.4c0.8-0.3,1.3-0.6,1.5-1.1
			c0.2-0.5,0.3-1.1,0.3-1.8c0-0.5,0.2-0.9,0.4-1.2c0.2-0.4,0.6-0.6,1.1-0.8l13.3-4.5c0.5-0.2,1-0.1,1.5,0.1c0.5,0.2,0.8,0.6,1,1.1
			c0.2,0.6,0.2,1.5,0.1,2.7c-0.1,1.2-0.4,2.6-0.9,4.1c-0.5,1.5-1.4,3.1-2.5,4.8c-1.2,1.6-2.7,3.2-4.7,4.6
			C1531.8,78.6,1529.3,79.8,1526.3,80.8z"/>
		<path class="st4" d="M1569,66.4c-6,2-11.2,2.2-15.7,0.4s-7.9-5.8-10-12.2c0-0.1-0.1-0.2-0.1-0.3c0-0.1-0.1-0.2-0.1-0.2
			c-1.2-3.9-1.5-7.5-0.8-10.8c0.7-3.2,2.3-6,4.7-8.4c2.4-2.3,5.6-4.2,9.4-5.5c4.5-1.5,8.4-1.9,11.8-1.2c3.4,0.7,6.3,2.3,8.7,4.6
			c2.3,2.3,4.1,5.2,5.2,8.5l0.7,2c0.2,0.5,0.1,1-0.1,1.5c-0.2,0.5-0.6,0.8-1.1,1l-20.3,6.9c0,0,0,0.1,0,0.1c0,0,0,0.1,0.1,0.2
			c0.3,0.9,0.6,1.6,1,2.2c0.4,0.6,0.8,0.9,1.3,1.1c0.5,0.2,1.1,0.2,1.7-0.1c0.3-0.1,0.5-0.2,0.7-0.4c0.2-0.2,0.3-0.4,0.5-0.7
			c0.1-0.3,0.3-0.6,0.4-0.9c0.3-0.5,0.5-0.9,0.8-1.1c0.2-0.2,0.6-0.4,1.2-0.6l12.9-4.4c0.5-0.2,0.9-0.1,1.3,0s0.6,0.5,0.7,1
			c0.2,0.9,0.2,2-0.1,3.5c-0.3,1.5-1.1,3-2.2,4.7c-1.1,1.6-2.7,3.2-4.8,4.8C1574.8,64,1572.2,65.3,1569,66.4z M1558.5,44.4l5.5-1.8
			l0-0.1c-0.3-1-0.7-1.8-1.1-2.4c-0.4-0.6-0.9-0.9-1.4-1.1c-0.5-0.2-1.1-0.1-1.7,0.1c-0.6,0.2-1,0.5-1.4,1c-0.3,0.4-0.5,1-0.4,1.7
			C1557.9,42.5,1558.1,43.4,1558.5,44.4L1558.5,44.4z"/>
		<path class="st4" d="M1589,38.5c-0.5,0.2-1,0.1-1.5-0.1c-0.5-0.2-0.8-0.6-1-1.1l-8.7-25.8c-0.2-0.5-0.1-1,0.1-1.5
			c0.2-0.5,0.6-0.8,1.1-1l11.9-4c0.5-0.2,1-0.1,1.5,0.1c0.5,0.2,0.8,0.6,1,1.1l8.7,25.8c0.2,0.5,0.1,1-0.1,1.5
			c-0.2,0.5-0.6,0.8-1.1,1L1589,38.5z M1595.2,56.8c-0.5,0.2-1,0.1-1.5-0.1c-0.5-0.2-0.8-0.6-1-1.1l-4-11.9c-0.2-0.5-0.1-1,0.1-1.5
			s0.6-0.8,1.1-1l11.9-4c0.5-0.2,1-0.1,1.5,0.1c0.5,0.2,0.8,0.6,1,1.1l4,11.9c0.2,0.5,0.1,1-0.1,1.5c-0.2,0.5-0.6,0.8-1.1,1
			L1595.2,56.8z"/>
	</g>
</g>
</svg>
