<?xml version="1.0" encoding="utf-8"?>
<!-- Generator: Adobe Illustrator 25.2.3, SVG Export Plug-In . SVG Version: 6.00 Build 0)  -->
<svg version="1.1" id="Layer_1" xmlns="http://www.w3.org/2000/svg" xmlns:xlink="http://www.w3.org/1999/xlink" x="0px" y="0px"
	 viewBox="0 0 205 205" style="enable-background:new 0 0 205 205;" xml:space="preserve">
<style type="text/css">
	.st0{fill:none;stroke:#2E279D;stroke-width:0.8518;stroke-miterlimit:10;}
	.st1{display:none;fill:none;stroke:#2E279D;stroke-width:0.8518;stroke-miterlimit:10;}
	.st2{fill-rule:evenodd;clip-rule:evenodd;fill:#2E279D;}
</style>
<g id="Comms">
	<path class="st0" d="M80.7,195.1l15.7,4.8l6.7,2.6l6.1-2.6l15.7-4.8l13.7-13.4l12.8-27.1l10.3-53.3l-7.1-11.4l-14.5,63l-18,23.1
		c0,0-5.1,3.1-12.8,3.1l-7.1,0.4l-5.7-0.4c-7.7,0-12.8-3.1-12.8-3.1l-18-23.1L51,89.8l-7.1,11.4l10.3,53.3L67,181.7L80.7,195.1
		l15.7,4.8"/>
	<polyline class="st0" points="96.8,165.6 100.4,167 101.6,167.5 102.7,167 106.2,165.6 111.5,162 114.6,154.3 110.8,151.3 
		102.3,152.9 101.6,153.1 100.6,152.9 92.2,151.3 88.4,154.3 91.5,162 96.8,165.6 100.4,167 	"/>
	<polygon class="st0" points="102.4,142.2 110.8,144.6 121.5,144 132.5,147.4 124.5,134.2 120.2,134 111.1,131.9 105.2,132.5 
		101.8,135.3 101.8,135.3 98.4,132.5 92.5,131.9 83.4,134 79.1,134.2 71.1,147.4 82.1,144 92.8,144.6 101.2,142.2 101.9,142 	"/>
	<path class="st1" d="M76.2,193.9l15.4,5.6l6.6,2.9l6.3-2.3l15.9-4.1l14.3-12.7l14.2-26.4l12.9-52.8l-6.6-11.7l-17.6,62.3
		l-19.1,22.2c0,0-5.3,2.9-13,2.5l-7.1,0.1l-5.7-0.7C85,178.4,80,175,80,175l-16.8-24L51.7,87.3l-7.7,11l7.6,53.8l11.5,27.7
		L76.2,193.9l15.4,5.6"/>
	<polyline class="st1" points="93.7,165.2 97.2,166.8 98.4,167.4 99.5,166.9 103.1,165.7 108.6,162.3 112.1,154.8 108.4,151.6 
		99.9,152.8 99.1,153 98.2,152.8 89.9,150.7 85.9,153.5 88.6,161.4 93.7,165.2 97.2,166.8 	"/>
	<polygon class="st1" points="100.4,142.1 108.7,144.9 119.4,144.9 130.2,148.8 122.9,135.2 118.6,134.9 109.6,132.3 103.8,132.6 
		100.2,135.2 100.2,135.2 96.9,132.2 91.1,131.4 81.9,133 77.6,133 69,145.8 80.1,143 90.8,144.1 99.3,142 99.9,141.9 	"/>
	<path class="st1" d="M88.4,196.6l16,3.5l6.9,2l5.9-3.1l15.2-6.1l12.5-14.5l10.5-28.1l5.8-54l-8.1-10.8l-9.3,64l-16,24.5
		c0,0-4.9,3.6-12.5,4.2l-7.1,1h-5.7c-7.7,0.6-13.1-2.1-13.1-2.1l-19.8-21.5L50.1,94.2l-6.2,12l14.7,52.3l15,25.9L88.4,196.6l16,3.5"
		/>
	<polyline class="st1" points="102,165.8 105.7,167 107,167.4 108,166.8 111.4,165.1 116.4,161.1 118.9,153.1 114.8,150.5 
		106.5,152.8 105.8,153 104.8,152.9 96.3,152 92.7,155.3 96.5,162.7 102,165.8 105.7,167 	"/>
	<polygon class="st1" points="105.6,142.1 114.2,143.8 124.8,142.3 136.1,144.8 127,132.3 122.7,132.5 113.5,131.1 107.7,132.2 
		104.5,135.3 104.5,135.3 100.9,132.7 95,132.6 86.1,135.5 81.8,136 75,149.9 85.6,145.6 96.3,145.3 104.5,142.2 105.1,142 	"/>
</g>
<g id="Design">
	<path class="st2" d="M158.4,80.7l-0.8,6.5c0,0-2.4,0.2-3.3,3.8c-0.7,2.8-0.9,6.6-1.9,10.3c-0.7,2.6-1.7,5.1-3.3,7.1
		c-3.2,4.1-8.3,5.7-12.8,6c-4.1,0.2-15.6-0.7-20.7-6.3c-2-2.2-3.8-4.7-4.9-7.4c-1.7-4-2.5-8.4-4.4-10.3c-0.8-0.8-1.8-0.8-3-0.8
		c-0.9,0-1.6-0.1-2.2,0.3c-1.5,1.1-2.4,5.1-3.8,8.7c-1.2,3.2-3,6.5-5.2,9c-5.7,6.5-16.1,7.1-20.7,6.8c-4.7-0.3-9.3-1.4-13.9-6.8
		c-3.9-4.6-3.5-12.5-4.6-16.9c-0.8-3.2-3.5-3.8-3.5-3.8l-0.5-6.3l0,0c0.3-0.1,13.9-3.2,30-1.9c13.3,1,19,5.3,24.5,5.2
		c5.4-0.1,14.3-4.7,24.5-5.2C144.1,78.1,157.4,80.6,158.4,80.7L158.4,80.7z M89.2,83.7c-5.6-2.5-21-2.7-26.1-0.8
		c-3.7,1.4-5.9,4.6-6.3,7.9c-0.4,3.7,0.5,11.6,4.4,16.1c1.7,1.9,3.5,3.2,5.4,4.1c2.6,1.1,5.2,1.4,5.2,1.4h3.8c0,0,7.7-0.3,12.8-4.9
		c4.4-4,6.3-12.1,6.3-16.3C94.6,89.2,92.8,85.3,89.2,83.7L89.2,83.7z M118.1,83.7c5.6-2.5,21-2.7,26.1-0.8c3.7,1.4,5.9,4.6,6.3,7.9
		c0.4,3.7-0.5,11.6-4.4,16.1c-1.7,1.9-3.5,3.2-5.4,4.1c-2.6,1.1-5.2,1.4-5.2,1.4h-3.8c0,0-7.7-0.3-12.8-4.9
		c-4.4-4-6.3-12.1-6.3-16.3C112.6,89.2,114.5,85.3,118.1,83.7L118.1,83.7z"/>
</g>
<g id="Coding">
	<polygon class="st1" points="102.4,33 126.3,31.2 144.6,45.1 149.7,56.7 154.3,78.8 160.4,79.6 161.7,68.3 159.8,55.2 157.3,42.9 
		149.7,32.4 141,22.7 129.9,11.5 111.5,8.2 91.9,2.9 75.4,6.7 64.1,20 52.7,35.4 45.3,56.4 45.3,69.9 47.6,79.4 52.2,78.8 
		55.2,73.7 55.8,69.7 55.8,59.4 60.9,46.8 64.5,37.9 71,33.9 77.3,31.4 84.1,30.7 93.1,31.8 98.8,33 	"/>
	<polygon class="st0" points="105.8,33 129.8,32.5 147.4,47.3 151.9,59.1 155.4,81.3 161.4,82.4 163.3,71.3 162.1,58.1 160.2,45.6 
		153.1,34.8 144.9,24.7 134.4,12.9 116.1,8.8 96.8,2.5 80.1,5.5 68.3,18.2 56.1,33.1 47.7,53.6 47,67.1 48.8,76.7 53.4,76.3 
		56.7,71.4 57.5,67.4 58,57.1 63.7,44.9 67.8,36.1 74.4,32.4 80.8,30.3 87.7,29.8 96.5,31.4 102.2,32.8 	"/>
	<polygon class="st1" points="96.6,33.2 120.3,29.5 139.7,41.9 145.8,53 152.1,74.6 158.3,74.9 158.7,63.6 155.7,50.6 152.2,38.5 
		143.7,28.7 134.2,19.8 122.3,9.5 103.6,7.8 83.7,4.2 67.5,9.3 57.4,23.5 47.3,39.8 41.7,61.3 42.8,74.7 45.9,84 50.4,83.1 53,77.7 
		53.2,73.7 52.4,63.4 56.4,50.5 59.3,41.3 65.4,36.8 71.5,33.8 78.2,32.5 87.2,32.9 93,33.5 	"/>
</g>
</svg>
